<svg xmlns="http://www.w3.org/2000/svg" fill="none" viewBox="0 0 267 38"><g clip-path="url(#a)"><path fill="#000" d="M-.076 19.14v14.264l17.659 4.279-4.945-9.984h7.064v-4.28l-8.477-8.557-1.412-1.426V2.026l-9.89 12.836 2.826 1.426-2.825 2.853Z"/><path fill="#D9D9D9" d="M1.338 19.569v12.409l12.997 2.852-3.532-7.131H8.401l-2.825-5.705 4.238 4.279h8.476v-2.425l-8.617-8.7L8.4 13.863V5.948L6.99 7.73v3.993l-.85-2.851-2.824 3.708.847 1.569-1.412-.856-.99 1.284 2.967 1.569-3.39 3.423Z"/><path fill="#969696" d="M16.03 23.134h.847v.285h-.706v.856l-.142-.713v-.428Z"/><path fill="#fff" d="M17.3 24.275h-1.13l1.13.143.706.57-.14-.427-.566-.286Z"/><path fill="#FF6099" d="m8.401 12.366-3.673 3.78-2.966-1.57.989-1.283 1.412.856-.847-1.569L6.14 8.872l.848 2.852V7.731L8.4 5.948v6.418Z"/><path fill="#969696" d="M5.082 30.266h.424L3.458 28.41h.423l-1.836-2.139h2.543L6 28.412h-.424l1.271 1.854h-.353l1.2 1.711-2.613-1.711Z"/><path fill="#000" d="M11.932 21.28 9.39 18.713l-.989.998 2.543 2.568.99-.999Z"/><path fill="#000" d="m8.4 21.28 2.543-2.567.99.998-2.544 2.568-.989-.999Z"/><path fill="#fff" d="m9.955 15.432 8.335 8.415v2.425l-.424-1.712-7.91-9.128Zm.99 6.847.706-.713-.706.998-.777-.713-.777.713-.848-1.141.848.856.777-.785.777.785Zm.847-2.425-.636.642.07.071.566-.713Zm-2.614.642-.494-.5.423.571.071-.071Zm5.157 14.334-2.26-4.564 1.27 4.35.99.214ZM1.338 19.569 8.4 12.366l-6.498 8.2-.565 8.559v-9.556ZM8.401 5.948 6.988 7.73v1.426l.07-.713.213-.285v2.139l.282-2.995.142.428.14-.428.072.285.494-.57v-1.07ZM6.14 8.872l.848 2.852L6.14 9.87l-.283.285.283.856-.424-.57v.285l-.141-.143-1.13 1.284 1.2 1.64-1.554-1.64.212.499-.212-.143-.353.357h-.424L6.14 8.872Zm-3.39 4.421.707.428h-.424l-.282-.143.847.713-.847-.499-.212.214.494.285-.706-.285.141.143-.353.428h-.353l.989-1.284Z"/><path fill="#969696" d="M8.402 27.698 6.283 23.42l2.12 5.706h3.107l-.706-1.427H8.402Zm-7.064 4.279v-2.852l.282 1.426 10.454 3.78-10.736-2.354Zm15.54-7.131 1.413 1.426H9.814l-4.238-4.279 3.532 2.853h7.77ZM9.39 18.713l.776.784.777-.784.99.998-.99-1.212-.777.785-.777-.785-.989 1.212.99-.998Z"/><path fill="#C90048" d="m4.727 16.145 3.674-3.78V8.302l-.424 3.85-3.673 3.424-1.06-.214 1.483.784Z"/><path fill="url(#b)" d="M10.168 21.351a.852.852 0 0 0 .848-.856.852.852 0 0 0-.848-.855.852.852 0 0 0-.848.855c0 .473.38.856.848.856Z"/><path fill="#000" d="M16.17 23.42h.702l.993 1.14-.565-.285h-1.13v-.856Z"/><path fill="#000" fill-rule="evenodd" d="M12.638 6.304 9.813 9.156v4.28l1.412 1.425 1.413-2.614V6.304Zm2.827 2.139L19.703.6l-4.238 4.279v3.565Z" clip-rule="evenodd"/><path fill="#000" fill-rule="evenodd" d="m12.64 7.017 2.826-2.852V7.73l-2.825 5.23V7.017Z" clip-rule="evenodd"/><path fill="#D9D9D9" d="M12.639 7.73 8.4 12.367v1.498l1.413 1.426 2.825-4.707v.713l2.826-4.707v.428l1.978-3.423-1.978 2.282v-.428l-2.825 2.996V7.73Z"/><path fill="#969696" d="m15.463 7.017 1.978-3.423-1.978 2.782v-.214l-2.825 3.565v-.57l-2.825 4.065v2.068l2.825-4.707v.713l2.825-4.707v.428Z"/><path fill="#000" d="M9.813 12.01v3.28l.988-1.284-.989-1.997Zm2.827-3.138v2.424l.707-.998-.706-1.426Zm2.825-2.853v.998l.424-.143-.424-.855Z"/></g><g clip-path="url(#c)"><path fill="#000" fill-rule="evenodd" d="M35.9 9h-9l-.9 9h.9v12h3v-9h4.8v-3H29l.6-6h6l.3-3ZM83 18l.9-9h9l-.3 3h-6l-.6 6h5.7v3h-4.8v9h-3V18H83ZM41.3 9h-3l-.9 9h.9v12h7.5v-3h-4.5v-9h-.9l.9-9Zm54 0h3l-.9 9h.9v9h4.5v3h-7.5V18h-.9l.9-9ZM47.9 9l-.9 9h.9v12h3v-9h3v9h3V18H56l.9-9h-9Zm2.1 9 .6-6h3l-.6 6h-3Zm21.9-9h3l-.9 9h3l.9-9h3l-.9 9h.9v12h-3v-9h-3v9h-3V18H71l.9-9Zm42 0-.9 9h.9v12h-9V18h-.9l.9-9h9Zm-6 18h3v-9h-.9l.6-6h-3l-.6 6h.9v9Zm9-18h3l-.9 9h.9v6.6l3-3 3 3V18h-.9l.9-9h3l-.9 9h.9v12h-3l-3-3-3 3h-3V18h-.9l.9-9Zm-57 3 1.2 6h1l3.3 9h-5.5v3h9v-3l-3.3-9h-.9l-1.6-6h5.8V9h-9v3Z" clip-rule="evenodd"/></g><path fill="#000" d="M166.506 16h-2.29a4.763 4.763 0 0 0-1.93-2.992c-.474-.344-1-.603-1.579-.775a6.295 6.295 0 0 0-1.809-.259c-1.145 0-2.182.29-3.112.868-.923.579-1.659 1.431-2.206 2.558-.542 1.126-.813 2.508-.813 4.146 0 1.637.271 3.019.813 4.145.547 1.127 1.283 1.979 2.206 2.558.93.578 1.967.867 3.112.867.628 0 1.231-.086 1.809-.258a5.292 5.292 0 0 0 1.579-.766c.48-.345.887-.767 1.219-1.265a4.852 4.852 0 0 0 .711-1.736h2.29c-.173.966-.487 1.831-.942 2.594a7.102 7.102 0 0 1-1.699 1.949 7.436 7.436 0 0 1-2.28 1.209 8.506 8.506 0 0 1-2.687.416c-1.613 0-3.047-.394-4.303-1.182-1.256-.788-2.243-1.908-2.964-3.361-.72-1.453-1.08-3.176-1.08-5.17 0-1.995.36-3.718 1.08-5.171.721-1.453 1.708-2.573 2.964-3.36 1.256-.789 2.69-1.183 4.303-1.183.954 0 1.849.139 2.687.416a7.332 7.332 0 0 1 2.28 1.219 6.976 6.976 0 0 1 1.699 1.938c.455.758.769 1.623.942 2.595Zm8.756 13.296c-1.281 0-2.404-.305-3.37-.915-.961-.609-1.712-1.462-2.253-2.557-.536-1.096-.803-2.376-.803-3.841 0-1.477.267-2.767.803-3.869.541-1.102 1.292-1.957 2.253-2.566.966-.61 2.089-.915 3.37-.915 1.28 0 2.4.305 3.36.915.967.609 1.718 1.464 2.253 2.566.542 1.102.813 2.392.813 3.869 0 1.465-.271 2.745-.813 3.84-.535 1.096-1.286 1.949-2.253 2.558-.96.61-2.08.915-3.36.915Zm0-1.958c.972 0 1.772-.25 2.4-.748.628-.498 1.093-1.154 1.394-1.966a7.52 7.52 0 0 0 .453-2.641 7.6 7.6 0 0 0-.453-2.65c-.301-.819-.766-1.48-1.394-1.985-.628-.505-1.428-.757-2.4-.757-.973 0-1.773.252-2.401.757-.628.505-1.092 1.166-1.394 1.985a7.597 7.597 0 0 0-.452 2.65c0 .948.15 1.828.452 2.64.302.813.766 1.469 1.394 1.967.628.499 1.428.748 2.401.748Zm11.521-6.87V29h-2.179V14.818h2.105v2.216h.185a4.047 4.047 0 0 1 1.514-1.736c.677-.443 1.551-.665 2.622-.665.96 0 1.801.198 2.521.591.72.388 1.28.98 1.68 1.773.4.788.6 1.785.6 2.992V29h-2.179v-8.864c0-1.114-.289-1.982-.868-2.603-.578-.628-1.372-.942-2.382-.942-.695 0-1.317.15-1.865.452a3.24 3.24 0 0 0-1.283 1.32c-.314.58-.471 1.28-.471 2.106Zm18.788-5.65v1.847h-7.35v-1.847h7.35Zm-5.208-3.397h2.179v13.517c0 .615.089 1.077.268 1.384.185.302.419.505.702.61.289.098.594.148.914.148.24 0 .437-.013.591-.037l.369-.074.443 1.957a4.46 4.46 0 0 1-.618.166 4.56 4.56 0 0 1-1.007.093 4.39 4.39 0 0 1-1.81-.397 3.591 3.591 0 0 1-1.458-1.21c-.382-.541-.573-1.225-.573-2.05V11.421ZM208.438 29V14.818h2.105v2.142h.148c.259-.701.726-1.27 1.404-1.708.677-.437 1.44-.655 2.289-.655.16 0 .36.003.6.009.241.006.422.015.545.027v2.216a6.53 6.53 0 0 0-.508-.083 4.985 4.985 0 0 0-.821-.064c-.69 0-1.305.144-1.847.434a3.28 3.28 0 0 0-1.274 1.181c-.308.5-.462 1.068-.462 1.709V29h-2.179Zm13.437.332c-.898 0-1.714-.169-2.446-.507a4.196 4.196 0 0 1-1.745-1.487c-.431-.652-.647-1.44-.647-2.364 0-.812.16-1.47.48-1.975a3.39 3.39 0 0 1 1.284-1.2 6.732 6.732 0 0 1 1.773-.647 21.594 21.594 0 0 1 1.966-.35 81.962 81.962 0 0 1 2.096-.25c.542-.062.936-.163 1.182-.305.252-.141.378-.388.378-.738v-.074c0-.911-.249-1.62-.747-2.124-.493-.505-1.241-.757-2.244-.757-1.04 0-1.856.228-2.447.683-.591.456-1.006.942-1.246 1.459l-2.068-.739c.369-.861.861-1.532 1.477-2.012a5.54 5.54 0 0 1 2.031-1.016 8.435 8.435 0 0 1 2.179-.296c.456 0 .979.056 1.57.167a5.022 5.022 0 0 1 1.726.655c.56.333 1.025.834 1.394 1.505.37.671.554 1.57.554 2.696V29h-2.179v-1.92h-.11c-.148.307-.394.637-.739.988-.345.35-.803.649-1.376.895-.572.246-1.271.37-2.096.37Zm.333-1.957c.862 0 1.588-.17 2.179-.508.597-.338 1.046-.775 1.348-1.31a3.338 3.338 0 0 0 .461-1.69v-1.995c-.092.111-.295.212-.609.305-.308.086-.665.163-1.071.23-.4.062-.791.118-1.173.167-.375.043-.68.08-.914.11a8.34 8.34 0 0 0-1.588.36c-.486.16-.88.404-1.181.73-.296.32-.444.757-.444 1.311 0 .757.28 1.33.841 1.718.566.381 1.283.572 2.151.572Zm15.496 1.92c-1.33 0-2.475-.314-3.435-.941-.96-.628-1.699-1.493-2.216-2.595-.517-1.102-.775-2.36-.775-3.776 0-1.44.264-2.712.794-3.813.535-1.108 1.28-1.973 2.234-2.595.96-.628 2.081-.941 3.361-.941.997 0 1.896.184 2.696.553.8.37 1.456.887 1.967 1.552.51.664.827 1.44.951 2.326h-2.179c-.167-.646-.536-1.218-1.108-1.717-.567-.505-1.33-.757-2.29-.757-.85 0-1.594.221-2.234.665-.634.437-1.13 1.055-1.487 1.855-.351.794-.526 1.727-.526 2.798 0 1.096.172 2.05.517 2.862.351.813.843 1.444 1.477 1.893.64.45 1.391.674 2.253.674.566 0 1.08-.098 1.542-.295.461-.197.852-.48 1.172-.85.32-.37.548-.812.684-1.33h2.179a5.06 5.06 0 0 1-.914 2.263c-.481.665-1.118 1.194-1.912 1.588-.788.388-1.705.582-2.751.582Zm14.52-14.477v1.847h-7.35v-1.847h7.35Zm-5.208-3.397h2.179v13.517c0 .615.089 1.077.268 1.384.185.302.418.505.702.61.289.098.594.148.914.148.24 0 .437-.013.591-.037l.369-.074.443 1.957a4.44 4.44 0 0 1-.619.166c-.264.062-.6.093-1.006.093a4.39 4.39 0 0 1-1.81-.397 3.591 3.591 0 0 1-1.458-1.21c-.382-.541-.573-1.225-.573-2.05V11.421Zm17.867 6.573-1.958.554a3.632 3.632 0 0 0-.544-.95 2.642 2.642 0 0 0-.961-.776c-.406-.203-.926-.305-1.56-.305-.868 0-1.591.2-2.17.6-.572.394-.858.896-.858 1.505 0 .542.197.97.591 1.284.394.314 1.009.575 1.846.784l2.105.517c1.268.308 2.213.779 2.835 1.413.622.628.932 1.437.932 2.428 0 .813-.234 1.54-.701 2.18-.462.64-1.108 1.144-1.939 1.513-.831.37-1.798.555-2.899.555-1.447 0-2.644-.314-3.592-.942-.948-.628-1.548-1.545-1.8-2.752l2.068-.517c.197.764.569 1.336 1.117 1.718.554.381 1.277.572 2.17.572 1.015 0 1.822-.215 2.419-.646.603-.437.905-.96.905-1.57a1.65 1.65 0 0 0-.518-1.237c-.344-.339-.874-.591-1.588-.757l-2.363-.554c-1.299-.308-2.253-.785-2.862-1.431-.604-.653-.905-1.468-.905-2.447 0-.8.224-1.508.674-2.124.455-.615 1.074-1.098 1.856-1.45.787-.35 1.68-.526 2.677-.526 1.404 0 2.505.308 3.305.924.807.615 1.379 1.428 1.718 2.437Z"/><path stroke="#000" d="M139.5 5v28"/><defs><clipPath id="a"><path fill="#fff" d="M0 0h19.704v38H0z"/></clipPath><clipPath id="c"><path fill="#fff" d="M0 0h102.9v21H0z" transform="translate(26 9)"/></clipPath><radialGradient id="b" cx="0" cy="0" r="1" gradientTransform="matrix(0 .85578 -.84763 0 10.168 20.495)" gradientUnits="userSpaceOnUse"><stop offset=".289" stop-color="#F40F00"/><stop offset="1" stop-color="#FF6099" stop-opacity="0"/></radialGradient></defs></svg>