<svg width="321" height="38" viewBox="0 0 321 38" fill="none" xmlns="http://www.w3.org/2000/svg">
<path d="M220.07 14.5498H217.78C217.645 13.8912 217.408 13.3126 217.069 12.814C216.737 12.3154 216.331 11.8969 215.851 11.5583C215.377 11.2136 214.85 10.9551 214.272 10.7828C213.693 10.6104 213.09 10.5242 212.462 10.5242C211.317 10.5242 210.28 10.8135 209.351 11.3921C208.427 11.9707 207.692 12.8232 207.144 13.9497C206.602 15.0761 206.331 16.4579 206.331 18.0953C206.331 19.7326 206.602 21.1144 207.144 22.2409C207.692 23.3673 208.427 24.2198 209.351 24.7984C210.28 25.377 211.317 25.6663 212.462 25.6663C213.09 25.6663 213.693 25.5801 214.272 25.4078C214.85 25.2354 215.377 24.98 215.851 24.6414C216.331 24.2967 216.737 23.8751 217.069 23.3765C217.408 22.8718 217.645 22.2932 217.78 21.6407H220.07C219.898 22.6071 219.584 23.4719 219.128 24.2352C218.673 24.9984 218.107 25.6478 217.43 26.1833C216.752 26.7127 215.992 27.1159 215.149 27.3928C214.312 27.6698 213.416 27.8083 212.462 27.8083C210.849 27.8083 209.415 27.4144 208.16 26.6265C206.904 25.8386 205.916 24.7184 205.196 23.2657C204.476 21.8131 204.116 20.0896 204.116 18.0953C204.116 16.1009 204.476 14.3775 205.196 12.9248C205.916 11.4722 206.904 10.3519 208.16 9.56401C209.415 8.77613 210.849 8.38219 212.462 8.38219C213.416 8.38219 214.312 8.52068 215.149 8.79767C215.992 9.07466 216.752 9.48091 217.43 10.0164C218.107 10.5458 218.673 11.1921 219.128 11.9553C219.584 12.7124 219.898 13.5773 220.07 14.5498ZM228.826 27.8453C227.546 27.8453 226.423 27.5406 225.456 26.9312C224.496 26.3218 223.745 25.4693 223.203 24.3737C222.668 23.278 222.4 21.9977 222.4 20.5328C222.4 19.0555 222.668 17.766 223.203 16.6642C223.745 15.5624 224.496 14.7068 225.456 14.0974C226.423 13.488 227.546 13.1833 228.826 13.1833C230.106 13.1833 231.227 13.488 232.187 14.0974C233.153 14.7068 233.904 15.5624 234.44 16.6642C234.981 17.766 235.252 19.0555 235.252 20.5328C235.252 21.9977 234.981 23.278 234.44 24.3737C233.904 25.4693 233.153 26.3218 232.187 26.9312C231.227 27.5406 230.106 27.8453 228.826 27.8453ZM228.826 25.8879C229.799 25.8879 230.599 25.6386 231.227 25.14C231.855 24.6414 232.319 23.9859 232.621 23.1734C232.923 22.3609 233.073 21.4807 233.073 20.5328C233.073 19.5848 232.923 18.7016 232.621 17.8829C232.319 17.0642 231.855 16.4026 231.227 15.8978C230.599 15.3931 229.799 15.1407 228.826 15.1407C227.854 15.1407 227.053 15.3931 226.426 15.8978C225.798 16.4026 225.333 17.0642 225.031 17.8829C224.73 18.7016 224.579 19.5848 224.579 20.5328C224.579 21.4807 224.73 22.3609 225.031 23.1734C225.333 23.9859 225.798 24.6414 226.426 25.14C227.053 25.6386 227.854 25.8879 228.826 25.8879ZM240.347 19.0186V27.5498H238.168V13.368H240.274V15.5839H240.458C240.791 14.8637 241.295 14.2851 241.972 13.8481C242.65 13.4049 243.524 13.1833 244.595 13.1833C245.555 13.1833 246.395 13.3803 247.115 13.7742C247.835 14.162 248.395 14.7529 248.796 15.547C249.196 16.3348 249.396 17.332 249.396 18.5384V27.5498H247.217V18.6862C247.217 17.5721 246.927 16.7042 246.349 16.0825C245.77 15.4546 244.976 15.1407 243.967 15.1407C243.271 15.1407 242.65 15.2915 242.102 15.5931C241.56 15.8947 241.132 16.3348 240.818 16.9134C240.504 17.492 240.347 18.1937 240.347 19.0186ZM259.135 13.368V15.2146H251.786V13.368H259.135ZM253.928 9.97026H256.107V23.4873C256.107 24.1028 256.196 24.5645 256.374 24.8722C256.559 25.1739 256.793 25.377 257.076 25.4816C257.365 25.5801 257.67 25.6294 257.99 25.6294C258.23 25.6294 258.427 25.617 258.581 25.5924C258.735 25.5616 258.858 25.537 258.95 25.5186L259.394 27.4759C259.246 27.5313 259.04 27.5867 258.775 27.6421C258.51 27.7037 258.175 27.7345 257.769 27.7345C257.153 27.7345 256.55 27.6021 255.959 27.3374C255.374 27.0728 254.888 26.6696 254.5 26.1279C254.118 25.5863 253.928 24.903 253.928 24.0782V9.97026ZM262.003 27.5498V13.368H264.108V15.51H264.256C264.514 14.8083 264.982 14.239 265.659 13.8019C266.336 13.3649 267.099 13.1464 267.949 13.1464C268.109 13.1464 268.309 13.1495 268.549 13.1556C268.789 13.1618 268.971 13.171 269.094 13.1833V15.3992C269.02 15.3808 268.851 15.3531 268.586 15.3161C268.327 15.2731 268.053 15.2515 267.764 15.2515C267.075 15.2515 266.459 15.3962 265.918 15.6855C265.382 15.9686 264.957 16.3625 264.643 16.8673C264.336 17.3659 264.182 17.9352 264.182 18.5754V27.5498H262.003ZM275.44 27.8822C274.541 27.8822 273.726 27.7129 272.993 27.3744C272.261 27.0297 271.679 26.5342 271.248 25.8879C270.817 25.2354 270.602 24.4475 270.602 23.5242C270.602 22.7117 270.762 22.0531 271.082 21.5484C271.402 21.0375 271.83 20.6374 272.365 20.3481C272.901 20.0588 273.492 19.8434 274.138 19.7018C274.79 19.5541 275.446 19.4371 276.105 19.3509C276.966 19.2401 277.665 19.157 278.201 19.1017C278.742 19.0401 279.136 18.9385 279.382 18.797C279.635 18.6554 279.761 18.4092 279.761 18.0583V17.9845C279.761 17.0735 279.512 16.3656 279.013 15.8609C278.521 15.3561 277.773 15.1038 276.769 15.1038C275.729 15.1038 274.914 15.3315 274.323 15.787C273.732 16.2425 273.316 16.7288 273.076 17.2458L271.008 16.5072C271.377 15.6454 271.87 14.9745 272.485 14.4944C273.107 14.0081 273.784 13.6696 274.517 13.4788C275.255 13.2818 275.982 13.1833 276.696 13.1833C277.151 13.1833 277.674 13.2387 278.265 13.3495C278.862 13.4542 279.438 13.6727 279.992 14.0051C280.552 14.3374 281.017 14.8391 281.386 15.51C281.755 16.181 281.94 17.0796 281.94 18.2061V27.5498H279.761V25.6294H279.65C279.502 25.9371 279.256 26.2664 278.911 26.6173C278.567 26.9681 278.108 27.2667 277.536 27.5129C276.963 27.7591 276.265 27.8822 275.44 27.8822ZM275.772 25.9248C276.634 25.9248 277.36 25.7555 277.951 25.417C278.548 25.0785 278.998 24.6414 279.299 24.1059C279.607 23.5704 279.761 23.0072 279.761 22.4163V20.422C279.669 20.5328 279.465 20.6343 279.152 20.7267C278.844 20.8128 278.487 20.8898 278.081 20.9575C277.68 21.019 277.29 21.0744 276.908 21.1237C276.532 21.1668 276.228 21.2037 275.994 21.2345C275.428 21.3083 274.898 21.4284 274.406 21.5945C273.92 21.7546 273.526 21.9977 273.224 22.324C272.929 22.644 272.781 23.0811 272.781 23.635C272.781 24.3921 273.061 24.9646 273.621 25.3524C274.187 25.734 274.904 25.9248 275.772 25.9248ZM291.268 27.8453C289.939 27.8453 288.794 27.5313 287.834 26.9035C286.873 26.2757 286.135 25.4108 285.618 24.309C285.101 23.2072 284.842 21.9485 284.842 20.5328C284.842 19.0924 285.107 17.8213 285.636 16.7195C286.172 15.6116 286.917 14.7468 287.871 14.1251C288.831 13.4972 289.951 13.1833 291.231 13.1833C292.229 13.1833 293.127 13.368 293.927 13.7373C294.728 14.1066 295.383 14.6237 295.894 15.2884C296.405 15.9532 296.722 16.7288 296.845 17.6151H294.666C294.5 16.9688 294.131 16.3964 293.558 15.8978C292.992 15.3931 292.229 15.1407 291.268 15.1407C290.419 15.1407 289.674 15.3623 289.034 15.8055C288.4 16.2425 287.904 16.8611 287.547 17.6613C287.197 18.4553 287.021 19.3879 287.021 20.4589C287.021 21.5545 287.194 22.5086 287.538 23.3211C287.889 24.1336 288.382 24.7645 289.015 25.2139C289.656 25.6632 290.407 25.8879 291.268 25.8879C291.835 25.8879 292.349 25.7894 292.81 25.5924C293.272 25.3954 293.663 25.1123 293.983 24.743C294.303 24.3737 294.531 23.9305 294.666 23.4134H296.845C296.722 24.2506 296.417 25.0046 295.931 25.6755C295.451 26.3403 294.814 26.8696 294.02 27.2636C293.232 27.6514 292.315 27.8453 291.268 27.8453ZM305.788 13.368V15.2146H298.439V13.368H305.788ZM300.581 9.97026H302.76V23.4873C302.76 24.1028 302.849 24.5645 303.027 24.8722C303.212 25.1739 303.446 25.377 303.729 25.4816C304.018 25.5801 304.323 25.6294 304.643 25.6294C304.883 25.6294 305.08 25.617 305.234 25.5924C305.388 25.5616 305.511 25.537 305.603 25.5186L306.047 27.4759C305.899 27.5313 305.693 27.5867 305.428 27.6421C305.163 27.7037 304.828 27.7345 304.422 27.7345C303.806 27.7345 303.203 27.6021 302.612 27.3374C302.027 27.0728 301.541 26.6696 301.153 26.1279C300.771 25.5863 300.581 24.903 300.581 24.0782V9.97026ZM318.447 16.5441L316.49 17.0981C316.367 16.7719 316.185 16.4549 315.945 16.1471C315.711 15.8332 315.391 15.5747 314.985 15.3715C314.579 15.1684 314.059 15.0668 313.425 15.0668C312.557 15.0668 311.833 15.2669 311.255 15.667C310.682 16.0609 310.396 16.5626 310.396 17.172C310.396 17.7136 310.593 18.1414 310.987 18.4553C311.381 18.7693 311.997 19.0309 312.834 19.2401L314.939 19.7572C316.207 20.065 317.152 20.5358 317.773 21.1698C318.395 21.7977 318.706 22.6071 318.706 23.5981C318.706 24.4106 318.472 25.1369 318.004 25.7771C317.542 26.4172 316.896 26.922 316.065 27.2913C315.234 27.6606 314.268 27.8453 313.166 27.8453C311.72 27.8453 310.522 27.5313 309.574 26.9035C308.626 26.2757 308.026 25.3585 307.774 24.1521L309.842 23.635C310.039 24.3983 310.412 24.9707 310.959 25.3524C311.513 25.734 312.237 25.9248 313.129 25.9248C314.145 25.9248 314.951 25.7094 315.548 25.2785C316.151 24.8415 316.453 24.3183 316.453 23.7089C316.453 23.2165 316.281 22.8041 315.936 22.4717C315.591 22.1331 315.062 21.8808 314.348 21.7146L311.984 21.1606C310.685 20.8528 309.731 20.3758 309.122 19.7295C308.519 19.077 308.217 18.2615 308.217 17.2828C308.217 16.4826 308.442 15.7747 308.891 15.1592C309.347 14.5436 309.965 14.0605 310.747 13.7096C311.535 13.3588 312.427 13.1833 313.425 13.1833C314.828 13.1833 315.93 13.4911 316.73 14.1066C317.536 14.7222 318.109 15.5347 318.447 16.5441Z" fill="black"/>
<line x1="193.064" y1="3.5498" x2="193.064" y2="31.5498" stroke="black"/>
<path fill-rule="evenodd" clip-rule="evenodd" d="M53.2004 19.7601L53.2004 31.1601H49.4004L49.4004 4.56006H60.8004V8.36006L53.2004 8.36006V15.2001L51.3004 15.9601H58.9004V19.7601H53.2004ZM125.4 19.7601V31.1601H121.6V4.56006H133V8.36006L125.4 8.36006V15.2001L123.5 15.9601H131.1V19.7601H125.4ZM110.2 31.1601V19.7601H114V31.1601H117.8V4.56006H114V15.9601H108.3L110.2 15.2001V4.56006H106.4V31.1601H110.2ZM68.4004 26.6001V4.56006H64.6004L64.6004 31.1601H74.1004V27.3601H66.5004L68.4004 26.6001ZM136.8 4.56006H140.6V26.6001L138.7 27.3601H146.3V31.1601H136.8V4.56006ZM174.8 4.56006H171V27.3601H167.2H165.3L167.2 26.6001V4.56006H163.4V24.8901C163.4 27.1978 163.4 28.3517 163.885 29.2168C164.227 29.8283 164.732 30.3331 165.344 30.6755C166.209 31.1601 167.363 31.1601 169.67 31.1601H176.13C178.438 31.1601 179.592 31.1601 180.457 30.6755C181.069 30.3331 181.573 29.8283 181.916 29.2168C182.4 28.3517 182.4 27.1978 182.4 24.8901V4.56006H178.6V27.3601H174.8H172.9L174.8 26.6001V4.56006ZM83.6004 31.1601H87.4004V4.56006H82.2704C79.9627 4.56006 78.8088 4.56006 77.9436 5.04457C77.3322 5.387 76.8273 5.89185 76.4849 6.5033C76.0004 7.36846 76.0004 8.52233 76.0004 10.8301V31.1601H79.8004V19.7601H83.6004V31.1601ZM79.8004 8.36006H83.6004V15.9601H77.9004L79.8004 15.2001V8.36006ZM102.6 4.56006H97.4704C95.1627 4.56006 94.0088 4.56006 93.1436 5.04457C92.5322 5.387 92.0273 5.89185 91.6849 6.5033C91.2004 7.36846 91.2004 8.52233 91.2004 10.8301V13.4901C91.2004 15.7978 91.2004 16.9517 91.6849 17.8168C92.0273 18.4283 92.5322 18.9331 93.1436 19.2755C94.0088 19.7601 95.1627 19.7601 97.4704 19.7601H98.8004V27.3601H91.2004V31.1601H96.3304C98.6381 31.1601 99.792 31.1601 100.657 30.6755C101.269 30.3331 101.773 29.8283 102.116 29.2168C102.6 28.3517 102.6 27.1978 102.6 24.8901V15.9601H93.1004L95.0004 15.2001V8.36006H102.6V4.56006ZM148.49 28.8143C148.2 28.1159 148.2 27.2306 148.2 25.4601V10.2601C148.2 8.48948 148.2 7.60419 148.49 6.90586C148.875 5.97475 149.615 5.23499 150.546 4.84932C151.245 4.56006 152.13 4.56006 153.9 4.56006C155.671 4.56006 156.556 4.56006 157.255 4.84932C158.186 5.23499 158.925 5.97475 159.311 6.90586C159.6 7.60419 159.6 8.48948 159.6 10.2601V25.4601C159.6 27.2306 159.6 28.1159 159.311 28.8143C158.925 29.7454 158.186 30.4851 157.255 30.8708C156.556 31.1601 155.671 31.1601 153.9 31.1601C152.13 31.1601 151.245 31.1601 150.546 30.8708C149.615 30.4851 148.875 29.7454 148.49 28.8143ZM155.8 8.36006V27.3601H150.1L152 26.6001V8.36006H155.8Z" fill="black"/>
<path fill-rule="evenodd" clip-rule="evenodd" d="M0 0L7.6 15.2L10.45 9.5H36.1L45.6 0H0Z" fill="#6C47FF"/>
<path fill-rule="evenodd" clip-rule="evenodd" d="M4.93945 24.6999L11.5895 11.3999H22.9895L21.0895 15.1999H30.5895L21.0895 24.6999H4.93945Z" fill="#9980FF"/>
<path fill-rule="evenodd" clip-rule="evenodd" d="M19.3805 26.6001H13.6805L7.98047 38.0001L19.3805 26.6001Z" fill="#6C47FF"/>
</svg>
